# xmcd
#
# Track frame offsets:
#	150
#	6232
#	17468
#	32257
#	49150
#	68366
#	82809
#	97027
#	112709
#	128851
#	139299
#	154428
#	166006
#	181390
#	193145
#	208005
#	220608
#	233315
#	252126
#	264543
#	300256
#	310316
#	337097
#
# Disc length: 4500 seconds
#
# Revision: 1
# Processed by: cddbd v1.5.1PL2 Copyright (c) Steve Scherf et al.
# Submitted via: audiograbber 1.83.01
#
DISCID=25119217
DTITLE=Blues Brothers - TT-102
DYEAR=1900
DGENRE=
TTITLE0=Blues Brothers - Can't turn you loose
TTITLE1=Blues Brothers - Everybody needs somebody
TTITLE2=Blues Brothers - Expressway to your heart
TTITLE3=Blues Brothers - Flip flop and fly
TTITLE4=Blues Brothers - Funky Nassau
TTITLE5=Blues Brothers - ghost riders in the sky
TTITLE6=Blues Brothers - Gimme some lovin
TTITLE7=Blues Brothers - Goin back to Miami
TTITLE8=Blues Brothers - Jailhouse Rock
TTITLE9=Blues Brothers - John the revelator
TTITLE10=Blues Brothers - Minnie the Moocher
TTITLE11=Blues Brothers - Money that's what i want
TTITLE12=Blues Brothers - New Orleans
TTITLE13=Blues Brothers - Rawhide
TTITLE14=Blues Brothers - Riot in Cell Block No 9
TTITLE15=Blues Brothers - Rubber Biscuit
TTITLE16=Blues Brothers - Shake a Tail Feather
TTITLE17=Blues Brothers - She caught me Katy
TTITLE18=Blues Brothers - Soul Man
TTITLE19=Blues Brothers - Sweet home Chicago
TTITLE20=Blues Brothers - Think
TTITLE21=Blues Brothers - Who's makin love
TTITLE22=No track - No track
EXTD=
EXTT0=
EXTT1=
EXTT2=
EXTT3=
EXTT4=
EXTT5=
EXTT6=
EXTT7=
EXTT8=
EXTT9=
EXTT10=
EXTT11=
EXTT12=
EXTT13=
EXTT14=
EXTT15=
EXTT16=
EXTT17=
EXTT18=
EXTT19=
EXTT20=
EXTT21=
EXTT22=
PLAYORDER=
